<svg width="130" height="130" viewBox="0 0 130 130" fill="none" xmlns="http://www.w3.org/2000/svg"><g clip-path="url(#clip0_42_37)"><path d="M119 0H11C4.925 0 0 4.925 0 11v108c0 6.075 4.925 11 11 11h108c6.075 0 11-4.925 11-11V11c0-6.075-4.925-11-11-11z" fill="#FF0051"/><path d="M50.45 97.99h-10.9c-1.03 0-1.94-.67-2.23-1.67L19.47 34.96c-.43-1.48.68-2.97 2.23-2.97h9.23c1.04 0 1.96.7 2.23 1.7l11.68 42.14c.13.48.81.48.95 0l12.32-42.18c.29-.99 1.2-1.67 2.23-1.67h9.35c1.03 0 1.94.68 2.23 1.67l12.32 42.18c.14.48.81.47.95 0l11.68-42.14c.28-1 1.19-1.7 2.23-1.7h9.23a2.32 2.32 0 012.23 2.97L92.71 96.32c-.29.99-1.2 1.67-2.23 1.67h-10.9c-1.03 0-1.94-.69-2.23-1.68L65.5 55.11c-.14-.47-.81-.47-.95 0L52.7 96.31c-.29.99-1.19 1.68-2.23 1.68h-.02z" fill="#fff"/></g><defs><clipPath id="clip0_42_37"><path fill="#fff" d="M0 0h130v130H0z"/></clipPath></defs></svg>